<?xml version="1.0" standalone="no"?><!DOCTYPE svg PUBLIC "-//W3C//DTD SVG 1.1//EN" "http://www.w3.org/Graphics/SVG/1.1/DTD/svg11.dtd"><svg xmlns:xlink="http://www.w3.org/1999/xlink" version="1.1" style="font-family:dosis, sans-serif;font-size:12px;" xmlns="http://www.w3.org/2000/svg" width="600" height="400"><desc>Created with Highcharts 4.2.0</desc><defs><clipPath id="highcharts-61"><rect x="0" y="0" width="580" height="337"></rect></clipPath></defs><rect x="1" y="1" width="598" height="398" strokeWidth="2" fill="none" class=" highcharts-background"></rect><g class="highcharts-series-group" ><g class="highcharts-series highcharts-series-0"  transform="translate(10,10) scale(1 1)"><path fill="#e7bb52" d="M 295.9720967710938 32.00000284157005 A 137 137 0 0 1 416.09720801143675 234.92162488787494 L 296 169 A 0 0 0 0 0 296 169 Z" stroke="#FFFFFF" stroke-width="1" stroke-linejoin="round" transform="translate(0,0)"></path><path fill="#2facb8" d="M 416.0312263489368 235.04168911506048 A 137 137 0 1 1 295.8097097484842 32.000132154734615 L 296 169 A 0 0 0 1 0 296 169 Z" stroke="#FFFFFF" stroke-width="1" stroke-linejoin="round" transform="translate(0,0)"></path></g><g class="highcharts-markers highcharts-series-0"  transform="translate(10,10) scale(1 1)"></g></g><g class="highcharts-data-labels highcharts-series-0"  visibility="visible" transform="translate(10,10) scale(1 1)" opacity="1"><path fill="none" d="M 444.2439185096586 83.49008356968801 C 439.2439185096586 83.49008356968801 432.357982293627 87.56241489569099 422.88981999658364 93.16187046894507 L 413.4216576995403 98.76132604219914" stroke="#e7bb52" stroke-width="1"></path><path fill="none" d="M 146.7560814903414 253.509916430312 C 151.7560814903414 253.509916430312 158.64201770637294 249.43758510430902 168.11018000341633 243.83812953105493 L 177.57834230045972 238.23867395780084" stroke="#2facb8" stroke-width="1"></path><g  style="cursor:pointer;" transform="translate(449,73)"><text x="5"  style="font-size:10px;font-weight:bold;font-family:'arial', sans-serif;color:#333;text-shadow:0 0 6px #ffffff, 0 0 3px #ffffff;fill:#333;text-rendering:geometricprecision;" y="15"><tspan>Many writer/reader : 33 %</tspan></text></g><g  style="cursor:pointer;" transform="translate(0,244)"><text x="5"  style="font-size:10px;font-weight:bold;font-family:'arial', sans-serif;color:#333;text-shadow:0 0 6px #ffffff, 0 0 3px #ffffff;fill:#333;text-rendering:geometricprecision;" y="15"><tspan>1 writer, many reader : 67 %</tspan></text></g></g><g class="highcharts-legend"  transform="translate(142,359)"><g ><g><g class="highcharts-legend-item"  transform="translate(8,3)"><text x="21" style="color:#333;font-size:9pt;font-weight:normal;cursor:pointer;font-family:'lucida grande','lucida sans unicode',arial,helvetica,sans-serif;text-transform:none;fill:#333;" text-anchor="start"  y="15"><tspan>Many writer/reader</tspan></text><rect x="0" y="4" width="16" height="12"  fill="#e7bb52"></rect></g><g class="highcharts-legend-item"  transform="translate(160.84375,3)"><text x="21" y="15" style="color:#333;font-size:9pt;font-weight:normal;cursor:pointer;font-family:'lucida grande','lucida sans unicode',arial,helvetica,sans-serif;text-transform:none;fill:#333;" text-anchor="start" ><tspan>1 writer, many reader</tspan></text><rect x="0" y="4" width="16" height="12"  fill="#2facb8"></rect></g></g></g></g><g class="highcharts-tooltip"  style="cursor:default;padding:0;pointer-events:none;white-space:nowrap;" transform="translate(0,-9999)"><path fill="rgb(219,219,216)" fill-opacity="0.8" d="M 3 0 L 13 0 C 16 0 16 0 16 3 L 16 13 C 16 16 16 16 13 16 L 3 16 C 0 16 0 16 0 13 L 0 3 C 0 0 0 0 3 0"></path><text x="8"  style="font-size:12px;color:#000000;fill:#000000;" y="20"></text></g><text x="590" text-anchor="end"  style="cursor:pointer;color:#666;font-size:9px;fill:#666;" y="395">meta-chart.com</text></svg>