<?xml version="1.0" standalone="no"?><!DOCTYPE svg PUBLIC "-//W3C//DTD SVG 1.1//EN" "http://www.w3.org/Graphics/SVG/1.1/DTD/svg11.dtd"><svg xmlns:xlink="http://www.w3.org/1999/xlink" version="1.1" style="font-family:dosis, sans-serif;font-size:12px;" xmlns="http://www.w3.org/2000/svg" width="600" height="400"><desc>Created with Highcharts 4.2.0</desc><defs><clipPath id="highcharts-69"><rect x="0" y="0" width="580" height="337"></rect></clipPath></defs><rect x="1" y="1" width="598" height="398" strokeWidth="2" fill="none" class=" highcharts-background"></rect><g class="highcharts-series-group" ><g class="highcharts-series highcharts-series-0"  transform="translate(10,10) scale(1 1)"><path fill="#d17adb" d="M 289.9736243201215 39.50000268600965 A 129.5 129.5 0 0 1 329.84980166251336 45.783753881810085 L 290 169 A 0 0 0 0 0 290 169 Z" stroke="#FFFFFF" stroke-width="1" stroke-linejoin="round" transform="translate(2,-10)"></path><path fill="#2facb8" d="M 329.9729979631963 45.8236652849489 A 129.5 129.5 0 1 1 289.8201270980197 39.500124919986376 L 290 169 A 0 0 0 1 0 290 169 Z" stroke="#FFFFFF" stroke-width="1" stroke-linejoin="round" transform="translate(0,0)"></path></g><g class="highcharts-markers highcharts-series-0"  transform="translate(10,10) scale(1 1)"></g></g><g class="highcharts-data-labels highcharts-series-0"  visibility="visible" transform="translate(10,10) scale(1 1)" opacity="1"><path fill="none" d="M 319.9512971739169 10.963709675075528 C 314.9512971739169 10.963709675075528 313.699821453595 18.865216399836626 311.97904233815245 29.729788146383143 L 310.2582632227099 40.59435989292966" stroke="#d17adb" stroke-width="1"></path><path fill="none" d="M 260.048702826083 326.03629032492444 C 265.048702826083 326.03629032492444 266.300178546405 318.13478360016336 268.02095766184755 307.27021185361684 L 269.7417367772901 296.4056401070703" stroke="#2facb8" stroke-width="1"></path><g  style="cursor:pointer;" transform="translate(325,1)"><text x="5"  style="font-size:10px;font-weight:bold;font-family:'arial', sans-serif;color:#333;text-shadow:0 0 6px #ffffff, 0 0 3px #ffffff;fill:#333;text-rendering:geometricprecision;" y="15"><tspan>concurrent : 5 %</tspan></text></g><g  style="cursor:pointer;" transform="translate(139,316)"><text x="5"  style="font-size:10px;font-weight:bold;font-family:'arial', sans-serif;color:#333;text-shadow:0 0 6px #ffffff, 0 0 3px #ffffff;fill:#333;text-rendering:geometricprecision;" y="15"><tspan>non-concurrent : 95 %</tspan></text></g></g><g class="highcharts-legend"  transform="translate(183,359)"><g ><g><g class="highcharts-legend-item"  transform="translate(8,3)"><text x="21" style="color:#333;font-size:9pt;font-weight:normal;cursor:pointer;font-family:'lucida grande','lucida sans unicode',arial,helvetica,sans-serif;text-transform:none;fill:#333;" text-anchor="start"  y="15">concurrent</text><rect x="0" y="4" width="16" height="12"  fill="#d17adb"></rect></g><g class="highcharts-legend-item"  transform="translate(112,3)"><text x="21" y="15" style="color:#333;font-size:9pt;font-weight:normal;cursor:pointer;font-family:'lucida grande','lucida sans unicode',arial,helvetica,sans-serif;text-transform:none;fill:#333;" text-anchor="start" >non-concurrent</text><rect x="0" y="4" width="16" height="12"  fill="#2facb8"></rect></g></g></g></g><g class="highcharts-tooltip"  style="cursor:default;padding:0;pointer-events:none;white-space:nowrap;" transform="translate(0,-9999)"><path fill="rgb(219,219,216)" fill-opacity="0.8" d="M 3 0 L 13 0 C 16 0 16 0 16 3 L 16 13 C 16 16 16 16 13 16 L 3 16 C 0 16 0 16 0 13 L 0 3 C 0 0 0 0 3 0"></path><text x="8"  style="font-size:12px;color:#000000;fill:#000000;" y="20"></text></g><text x="590" text-anchor="end"  style="cursor:pointer;color:#666;font-size:9px;fill:#666;" y="395">meta-chart.com</text></svg>