<?xml version="1.0" encoding="utf-8"?>
<!-- Generator: Adobe Illustrator 16.0.0, SVG Export Plug-In . SVG Version: 6.00 Build 0)  -->
<!DOCTYPE svg PUBLIC "-//W3C//DTD SVG 1.1//EN" "http://www.w3.org/Graphics/SVG/1.1/DTD/svg11.dtd">
<svg version="1.1" id="Calque_1" xmlns="http://www.w3.org/2000/svg" xmlns:xlink="http://www.w3.org/1999/xlink" x="0px" y="0px"
	 width="846.673px" height="317.077px" viewBox="0 0 846.673 317.077" enable-background="new 0 0 846.673 317.077"
	 xml:space="preserve">
<g>
	<g>
		<path fill="#CA6332" d="M517.997,74.841c-4.723-16.602-16.093-30.379-31.045-38.305l-5.523,15.414
			c11.553,6.895,19.898,18.609,22.193,32.371l1.23,7.373l7.443-0.668c0.992-0.09,1.955-0.139,2.889-0.139
			c17.548,0.033,31.747,14.23,31.78,31.779c-0.033,8.799-3.439,15.844-9.058,21.049c-5.631,5.166-13.605,8.354-22.723,8.359h-54.035
			v-12.236l-35.076,20.252l35.076,20.25v-12.137h54.035h0.012c12.883,0,24.827-4.543,33.613-12.609
			c8.805-8.027,14.315-19.723,14.281-32.928C563.085,97.149,543.151,76.302,517.997,74.841"/>
		<path fill="#333333" d="M478.436,39.331l-35.074-20.252v11.768c-20.449,4.725-37.075,19.406-44.481,38.693
			c-2.219-0.309-4.484-0.473-6.781-0.471c-19.711,0.014-36.683,11.721-44.309,28.588c-12.943,5.713-21.949,18.654-21.961,33.703
			c0.005,20.352,16.494,36.838,36.843,36.844h5.903l20.057,12.135l33.462-20.248l-33.464-20.252l-20.22,12.236h-5.738
			c-11.438-0.021-20.695-9.275-20.714-20.715c-0.016-9.246,6.075-17.074,14.426-19.738l3.791-1.207l1.348-3.746
			c4.516-12.502,16.482-21.471,30.549-21.473h0.027c3.432,0,6.72,0.533,9.816,1.512l8.219,2.604l2.049-8.375
			c3.866-15.807,15.794-28.475,31.179-33.377v12.023L478.436,39.331z"/>
	</g>
	<g>
		<path fill="#333333" d="M158.098,199.886c11.064,0,18.933,5.041,23.974,10.204l-7.868,8.853c-4.057-3.936-8.484-6.64-15.984-6.64
			c-14.262,0-23.852,11.067-23.852,29.14c0,18.319,8.484,29.384,24.589,29.384c4.549,0,8.975-1.229,11.557-3.564v-17.335H155.27
			v-11.682h28.032v35.409c-5.534,5.41-15,9.59-26.064,9.59c-21.393,0-37.499-14.754-37.499-41.434
			C119.739,215.5,136.336,199.886,158.098,199.886z"/>
		<path fill="#333333" d="M219.45,219.927c16.351,0,24.958,11.803,24.958,28.646c0,2.705-0.246,5.164-0.614,6.64h-38.361
			c1.23,10.941,8.115,17.09,17.827,17.09c5.164,0,9.59-1.599,14.017-4.426l4.794,8.852c-5.779,3.812-13.033,6.517-20.654,6.517
			c-16.721,0-29.754-11.68-29.754-31.6C191.664,231.974,205.311,219.927,219.45,219.927z M232.113,246.238
			c0-9.592-4.057-15.37-12.294-15.37c-7.131,0-13.278,5.287-14.508,15.37H232.113z"/>
		<path fill="#333333" d="M253.629,221.404h11.681l0.983,8.112h0.492c5.408-5.287,11.556-9.59,19.794-9.59
			c12.911,0,18.565,8.729,18.565,23.976v37.868h-14.139v-36.025c0-9.957-2.828-13.646-9.467-13.646c-5.289,0-8.73,2.58-13.77,7.5
			v42.171h-14.14V221.404z"/>
		<path fill="#CA6332" d="M318.671,201.607h19.179l13.402,36.025l4.794,14.012h0.493l4.795-14.012l13.032-36.025h19.058v80.163
			H376.58v-29.386c0-7.87,1.474-19.548,2.335-27.295h-0.492l-6.638,18.565l-12.294,31.106h-7.256l-12.294-31.106l-6.394-18.565
			h-0.492c0.862,7.747,2.212,19.425,2.212,27.295v29.386h-16.597V201.607z"/>
		<path fill="#CA6332" d="M411.991,291.358c6.024,0,9.098-3.195,10.696-7.991l0.859-3.195l-23.482-59.385h18.196l8.73,26.189
			c1.72,5.531,3.197,11.31,4.795,17.334h0.49c1.354-5.778,2.705-11.559,4.182-17.334l7.375-26.189h17.336l-21.146,61.596
			c-5.779,15.37-12.294,23.238-26.68,23.238c-3.688,0-6.146-0.491-8.605-1.229l3.195-13.771
			C409.04,290.867,410.637,291.358,411.991,291.358z"/>
		<path fill="#333333" d="M468.548,201.361h15.735l14.508,39.588l5.287,15.247h0.492l5.163-15.247l14.263-39.588h15.736v80.409
			h-13.401v-36.763c0-7.5,1.107-18.197,1.847-25.572h-0.493l-6.517,18.318l-13.893,36.515h-6.639l-13.894-36.515l-6.393-18.318
			h-0.492c0.735,7.375,1.845,18.072,1.845,25.572v36.763h-13.155V201.361z"/>
		<path fill="#333333" d="M579.326,219.927c15.122,0,28.771,11.556,28.771,31.718c0,20.043-13.648,31.6-28.771,31.6
			c-15.001,0-28.646-11.557-28.646-31.6C550.68,231.482,564.325,219.927,579.326,219.927z M579.326,271.688
			c8.852,0,14.261-7.991,14.261-20.043c0-12.171-5.409-20.162-14.261-20.162c-8.853,0-14.139,7.991-14.139,20.162
			C565.187,263.696,570.473,271.688,579.326,271.688z"/>
		<path fill="#333333" d="M639.695,219.927c6.885,0,11.188,2.581,15.859,6.639l-0.491-9.713v-21.884h14.139v86.802h-11.68
			l-0.983-6.518h-0.492c-4.425,4.426-10.573,7.991-17.089,7.991c-15.124,0-24.835-11.68-24.835-31.6
			C614.123,231.974,626.538,219.927,639.695,219.927z M642.398,271.564c4.672,0,8.606-2.092,12.665-6.761v-28.157
			c-4.181-3.688-8.238-5.042-12.295-5.042c-7.744,0-14.016,7.257-14.016,19.919C628.752,264.555,633.67,271.564,642.398,271.564z"/>
		<path fill="#333333" d="M706.702,219.927c16.354,0,24.96,11.803,24.96,28.646c0,2.705-0.248,5.164-0.616,6.64h-38.358
			c1.229,10.941,8.114,17.09,17.826,17.09c5.164,0,9.592-1.599,14.017-4.426l4.797,8.852c-5.781,3.812-13.035,6.517-20.656,6.517
			c-16.723,0-29.753-11.68-29.753-31.6C678.917,231.974,692.563,219.927,706.702,219.927z M719.368,246.238
			c0-9.592-4.06-15.37-12.295-15.37c-7.134,0-13.279,5.287-14.51,15.37H719.368z"/>
		<path fill="#333333" d="M740.882,194.969h14.138v72.046c0,3.441,1.6,4.673,3.076,4.673c0.613,0,1.105,0,2.211-0.247l1.845,10.574
			c-1.722,0.735-4.179,1.229-7.499,1.229c-10.082,0-13.771-6.517-13.771-16.967V194.969z"/>
	</g>
</g>
</svg>
